<?xml version="1.0" ?><!DOCTYPE svg  PUBLIC '-//W3C//DTD SVG 1.1//EN'  'http://www.w3.org/Graphics/SVG/1.1/DTD/svg11.dtd'><svg enable-background="new 0 0 21 21" height="21px" id="Layer_1" version="1.1" viewBox="0 0 21 21" width="21px" xml:space="preserve" xmlns="http://www.w3.org/2000/svg" xmlns:xlink="http://www.w3.org/1999/xlink"><g id="icon"><ellipse cx="8.5" cy="3.5" fill="none" rx="7" ry="2" stroke="#000000" stroke-linecap="round" stroke-linejoin="round" stroke-miterlimit="1" stroke-width="1"/><path d="M9.7,10.1709C9.3101,10.1901,8.9091,10.2,8.5,10.2c-3.866,0,-7,-0.885,-7,-2.1" fill="none" stroke="#000000" stroke-linecap="round" stroke-linejoin="round" stroke-miterlimit="1" stroke-width="1"/><path d="M10.6,14.8043C9.937,14.8671,9.2316,14.9,8.5,14.9c-3.866,0,-7,-0.9193,-7,-2.3" fill="none" stroke="#000000" stroke-linecap="round" stroke-linejoin="round" stroke-miterlimit="1" stroke-width="1"/><path d="M15.5,12.6" fill="none" stroke="#000000" stroke-linecap="round" stroke-linejoin="round" stroke-miterlimit="1" stroke-width="1"/><path d="M15.2484,17.3c-0.8169,1.2685,-3.5288,2.2,-6.7484,2.2c-3.866,0,-7,-1.3431,-7,-3" fill="none" stroke="#000000" stroke-linecap="round" stroke-linejoin="round" stroke-miterlimit="1" stroke-width="1"/><line fill="none" stroke="#000000" stroke-linecap="round" stroke-linejoin="round" stroke-miterlimit="1" stroke-width="1" x1="1.5" x2="1.5" y1="3.8" y2="16.7"/><line fill="none" stroke="#000000" stroke-linecap="round" stroke-linejoin="round" stroke-miterlimit="1" stroke-width="1" x1="15.5" x2="15.5" y1="3.8" y2="5.5"/><circle cx="15.5" cy="11.5" fill="none" r="4" stroke="#000000" stroke-miterlimit="1" stroke-width="1"/><line fill="none" stroke="#000000" stroke-linecap="round" stroke-miterlimit="1" stroke-width="1" x1="17.6" x2="13.3" y1="11.5" y2="11.5"/><line fill="none" stroke="#000000" stroke-linecap="round" stroke-miterlimit="1" stroke-width="1" x1="17.58" x2="15.5746" y1="11.5" y2="9.4601"/><line fill="none" stroke="#000000" stroke-linecap="round" stroke-miterlimit="1" stroke-width="1" x1="17.58" x2="15.5746" y1="11.5" y2="13.4199"/></g></svg>
