<?xml version="1.0" ?><svg viewBox="0 0 24 24" xmlns="http://www.w3.org/2000/svg"><title/><g data-name="level up" id="level_up"><path d="M18.58,4.37l-6.5-1a.43.43,0,0,0-.16,0l-6.5,1A.5.5,0,0,0,5,4.86V9.49a12.56,12.56,0,0,0,6.07,10.72l.67.4a.52.52,0,0,0,.52,0l.67-.4a.5.5,0,0,0-.52-.86L12,19.6l-.41-.25A11.54,11.54,0,0,1,6,9.49V5.29l6-1,6,1v4.2a11.31,11.31,0,0,1-.26,2.4.51.51,0,0,0,.39.6.5.5,0,0,0,.59-.38A12.15,12.15,0,0,0,19,9.49V4.86A.5.5,0,0,0,18.58,4.37Z"/><path d="M13.87,13.43l-.25-2a2.5,2.5,0,1,0-3.24,0l-.38,3a.55.55,0,0,0,.12.39.52.52,0,0,0,.38.17h1.85A3.51,3.51,0,0,0,12,16.5a3.85,3.85,0,0,0,.1.83,2.5,2.5,0,0,0,.09.25,4,4,0,0,0,.2.52,2.94,2.94,0,0,0,.17.26,3.13,3.13,0,0,0,.29.42c.08.09.17.16.25.24a2.4,2.4,0,0,0,.28.27v0a.5.5,0,0,0,.3.18,3.49,3.49,0,0,0,5.31-3,3.43,3.43,0,0,0-1.17-2.6A3.51,3.51,0,0,0,13.87,13.43Zm-2.8.57.34-2.76a.52.52,0,0,0-.23-.48A1.52,1.52,0,0,1,10.5,9.5a1.5,1.5,0,0,1,3,0,1.52,1.52,0,0,1-.68,1.26.52.52,0,0,0-.23.48L12.93,14Zm4.43,5a2.58,2.58,0,0,1-1.4-.42A2.52,2.52,0,0,1,13,16.5a2.47,2.47,0,0,1,.65-1.67l.16-.17a2.55,2.55,0,0,1,3.31-.05.1.1,0,0,1,.05,0A2.43,2.43,0,0,1,18,16.5,2.5,2.5,0,0,1,15.5,19Z"/><path d="M16.72,15.05a.51.51,0,0,0-.67.23l-.69,1.38-.51-.51a.49.49,0,0,0-.7.7l1,1a.47.47,0,0,0,.35.15h.08a.47.47,0,0,0,.37-.27l1-2A.51.51,0,0,0,16.72,15.05Z"/></g></svg>