<?xml version="1.0" ?><svg height="48px" version="1.1" viewBox="0 0 48 48" width="48px" xmlns="http://www.w3.org/2000/svg" xmlns:xlink="http://www.w3.org/1999/xlink"><title/><desc/><g fill="none" fill-rule="evenodd" id="stroke-4px" stroke="none" stroke-width="1"><g fill="#000000" id="The-Icons" transform="translate(-396.000000, -3602.000000)"><g id="9.3" transform="translate(396.000000, 3602.000000)"><g id="Combined-Shape"><path d="M24,48 C10.745166,48 0,37.254834 0,24 C0,10.745166 10.745166,0 24,0 C37.254834,0 48,10.745166 48,24 C48,37.254834 37.254834,48 24,48 Z M24,44 C35.045695,44 44,35.045695 44,24 C44,12.954305 35.045695,4 24,4 C12.954305,4 4,12.954305 4,24 C4,35.045695 12.954305,44 24,44 Z M20.7573593,28.0710678 L33.4817836,15.3466435 C34.264764,14.5636632 35.5272146,14.5566518 36.3137085,15.3431458 C37.0947571,16.1241943 37.0936287,17.3916526 36.3102107,18.1750706 L22.1750706,32.3102107 L22.173321,32.3119583 L22.1715729,32.3137085 C21.7820521,32.7032293 21.2706869,32.8973435 20.7581443,32.900517 C20.2471068,32.9012465 19.7358084,32.7063711 19.3431458,32.3137085 L19.3401337,32.3106902 L19.337114,32.3076767 L13.6923233,26.662886 C12.9079434,25.8785062 12.8997976,24.614921 13.6862915,23.8284271 C14.4673401,23.0473785 15.7382803,23.0519888 16.5207504,23.8344589 L20.7573593,28.0710678 Z" fill-rule="nonzero"/></g></g></g></g></svg>