<?xml version="1.0" ?><!DOCTYPE svg  PUBLIC '-//W3C//DTD SVG 1.1//EN'  'http://www.w3.org/Graphics/SVG/1.1/DTD/svg11.dtd'><svg enable-background="new 0 0 100 100" height="100px" id="Albania" version="1.1" viewBox="0 0 100 100" width="100px" xml:space="preserve" xmlns="http://www.w3.org/2000/svg" xmlns:xlink="http://www.w3.org/1999/xlink"><g><rect height="1.915" transform="matrix(0.7071 0.7071 -0.7071 0.7071 40.5869 -43.7297)" width="19.015" x="63.575" y="26.173"/><rect height="1.913" transform="matrix(0.7071 0.7072 -0.7072 0.7071 38.511 -48.5544)" width="26.498" x="64.61" y="21.248"/><rect height="1.914" transform="matrix(0.707 0.7072 -0.7072 0.707 45.7984 -30.5219)" width="19.013" x="50.228" y="39.054"/><rect height="1.916" transform="matrix(0.7071 0.7071 -0.7071 0.7071 48.0171 -25.7621)" width="26.497" x="41.86" y="44.127"/><rect height="1.915" transform="matrix(0.7071 0.7071 -0.7071 0.7071 49.8089 -20.8168)" width="30.376" x="34.844" y="48.757"/><rect height="1.916" transform="matrix(0.7071 0.7071 -0.7071 0.7071 53.8909 -11.141)" width="19.004" x="30.892" y="58.527"/><rect height="1.915" transform="matrix(0.7071 0.7071 -0.7071 0.7071 51.6912 -15.9117)" width="28.101" x="31.002" y="53.483"/><rect height="1.913" transform="matrix(0.7071 0.7072 -0.7072 0.7071 59.464 2.291)" width="19.015" x="17.46" y="71.961"/><rect height="1.915" transform="matrix(0.7071 0.7071 -0.7071 0.7071 61.716 7.0377)" width="27.598" x="8.564" y="77.059"/><g><path d="M33.808,70.366c-0.489-0.043-0.969-0.083-1.448-0.124c0.56,8.107,0.272,15.635-5.581,21.489    c-0.749,0.748-0.747,1.96,0,2.707C27.152,94.813,27.644,95,28.133,95c0.49,0.001,0.979-0.188,1.354-0.562    c6.822-6.822,7.278-15.314,6.73-23.869C35.408,70.501,34.604,70.434,33.808,70.366z"/><path d="M61.885,31.329c-8.525-0.545-16.986-0.093-23.796,6.663c-0.009,0.009-0.02,0.015-0.028,0.023    c-0.008,0.008-0.014,0.016-0.021,0.022c-0.008,0.008-0.016,0.015-0.023,0.022c-0.01,0.01-0.016,0.021-0.025,0.03    c-6.553,6.611-6.893,15.002-6.323,23.451c0.964,0.075,1.922,0.156,2.872,0.238c0.333,0.028,0.657,0.054,0.987,0.083    c-0.58-8.031-0.399-15.478,5.219-21.119c5.851-5.83,13.368-6.117,21.465-5.557c-0.039-0.481-0.08-0.961-0.123-1.448    C62.019,32.944,61.951,32.139,61.885,31.329z"/><path d="M94.438,26.779c-0.749-0.748-1.96-0.748-2.709,0c-5.644,5.641-13.102,5.823-21.141,5.242    c0.026,0.325,0.055,0.648,0.084,0.977c0.082,0.949,0.161,1.912,0.236,2.882c8.481,0.571,16.906,0.229,23.529-6.393    C95.186,28.739,95.186,27.526,94.438,26.779z"/></g><path d="M73.221,5.561c-0.747-0.747-1.958-0.747-2.707,0.001c-7.784,7.781-6.898,18.045-6.041,27.973   c0.836,9.691,1.623,18.85-5.213,25.715c-6.521,6.501-15.456,5.732-24.918,4.915C24.19,63.29,13.69,62.385,5.563,70.513   c-0.748,0.748-0.748,1.96,0,2.708c0.374,0.374,0.865,0.561,1.354,0.561s0.979-0.187,1.354-0.561   c6.866-6.87,16.037-6.075,25.743-5.241c9.887,0.854,20.104,1.729,27.878-5.954c0.016-0.016,0.034-0.025,0.049-0.041   c0.009-0.008,0.018-0.02,0.026-0.028c0.007-0.007,0.013-0.011,0.019-0.017c0.009-0.009,0.017-0.021,0.024-0.029   c8.048-8.119,7.151-18.584,6.277-28.705c-0.816-9.471-1.588-18.416,4.934-24.938C73.97,7.52,73.97,6.308,73.221,5.561z"/></g></svg>