<?xml version="1.0" ?><svg style="enable-background:new 0 0 50 50;" version="1.1" viewBox="0 0 50 50" xml:space="preserve" xmlns="http://www.w3.org/2000/svg" xmlns:xlink="http://www.w3.org/1999/xlink"><g id="Layer_1"><polygon points="24,25 24,44.586 19.707,40.293 18.293,41.707 25,48.414 31.707,41.707 30.293,40.293 26,44.586 26,25  "/><path d="M40.996,17.2C40.999,17.133,41,17.066,41,17c0-3.09-2.349-5.643-5.354-5.965C34.286,5.172,29.095,1,23,1   c-7.168,0-13,5.832-13,13c0,0.384,0.02,0.775,0.06,1.18C4.902,16.106,1,20.669,1,26c0,6.065,4.935,11,11,11h8v-2h-8   c-4.963,0-9-4.038-9-9c0-4.651,3.631-8.588,8.267-8.962l1.091-0.088l-0.186-1.078C12.057,15.198,12,14.586,12,14   c0-6.065,4.935-11,11-11c5.393,0,9.95,3.862,10.836,9.182l0.145,0.871l0.882-0.036C34.925,13.015,34.986,13.008,35,13   c2.206,0,4,1.794,4,4c0,0.272-0.03,0.553-0.091,0.835l-0.235,1.096l1.115,0.109C43.9,19.442,47,22.864,47,27c0,4.411-3.589,8-8,8   h-9v2h9c5.514,0,10-4.486,10-10C49,22.175,45.624,18.128,40.996,17.2z"/></g><g/></svg>