<?xml version="1.0" encoding="UTF-8" standalone="no"?>
<svg
   xmlns:dc="http://purl.org/dc/elements/1.1/"
   xmlns:cc="http://creativecommons.org/ns#"
   xmlns:rdf="http://www.w3.org/1999/02/22-rdf-syntax-ns#"
   xmlns:svg="http://www.w3.org/2000/svg"
   xmlns="http://www.w3.org/2000/svg"
   xmlns:sodipodi="http://sodipodi.sourceforge.net/DTD/sodipodi-0.dtd"
   xmlns:inkscape="http://www.inkscape.org/namespaces/inkscape"
   version="1.1"
   id="svg2"
   xml:space="preserve"
   width="800"
   height="800"
   viewBox="0 0 800 800"
   sodipodi:docname="iStock-989461932.eps"><metadata
     id="metadata8"><rdf:RDF><cc:Work
         rdf:about=""><dc:format>image/svg+xml</dc:format><dc:type
           rdf:resource="http://purl.org/dc/dcmitype/StillImage" /></cc:Work></rdf:RDF></metadata><defs
     id="defs6" /><sodipodi:namedview
     pagecolor="#ffffff"
     bordercolor="#666666"
     borderopacity="1"
     objecttolerance="10"
     gridtolerance="10"
     guidetolerance="10"
     inkscape:pageopacity="0"
     inkscape:pageshadow="2"
     inkscape:window-width="640"
     inkscape:window-height="480"
     id="namedview4" /><g
     id="g10"
     inkscape:groupmode="layer"
     inkscape:label="ink_ext_XXXXXX"
     transform="matrix(1.3333333,0,0,-1.3333333,0,800)"><g
       id="g12"
       transform="scale(0.1)"><path
         d="M 6000,0 H 0 V 6000 H 6000 V 0"
         style="fill:#ffffff;fill-opacity:1;fill-rule:nonzero;stroke:none"
         id="path14" /><path
         d="m 1786.66,3559.2 h 2201 c 77.92,0 136.13,-82.47 130.03,-183.88 l 19.95,-1168.52 c -6.74,-112 -83.78,-202.45 -172.1,-202.45 H 1889.99 c -88.32,0 -158.45,90.45 -156.62,202.45 l -90.79,1168.53 c 1.65,101.4 66.16,183.87 144.08,183.87"
         style="fill:#ffffff;fill-opacity:1;fill-rule:nonzero;stroke:none"
         id="path16" /><path
         d="m 1786.66,3559.2 v -49.93 h 2201 c 10.12,-0.04 19.04,-2.4 27.94,-7.15 13.22,-7.09 26.42,-20.41 36.34,-39.83 9.92,-19.32 16.27,-44.36 16.25,-72.42 0,-3.77 -0.12,-7.65 -0.35,-11.64 l -0.11,-1.84 19.98,-1170.45 49.93,0.86 -49.84,3 c -2.65,-45.4 -19.97,-86.17 -43.65,-113.88 -11.8,-13.88 -25.03,-24.46 -38.38,-31.36 -13.39,-6.91 -26.72,-10.27 -40.23,-10.29 H 1889.99 c -13.35,0.04 -25.71,3.25 -37.82,9.65 -18.05,9.55 -35.41,26.94 -48.18,51 -12.77,23.97 -20.75,54.24 -20.73,87.61 0,1.25 0,2.3 0.02,3.16 l 0.06,2.49 -90.98,1171.02 -49.78,-3.87 49.92,-0.81 c 0.57,40.33 14.08,76.22 32.82,99.98 9.33,11.93 19.78,20.77 30.15,26.43 10.42,5.66 20.57,8.31 31.19,8.34 v 49.93 49.93 c -28.34,0.03 -55.48,-7.63 -79.11,-20.6 -35.57,-19.53 -63.62,-50.3 -83.24,-86.92 -19.59,-36.7 -30.88,-79.66 -31.65,-125.46 l -0.04,-2.36 90.97,-1170.86 49.78,3.87 -49.92,1.11 c -0.04,-1.99 -0.05,-3.79 -0.05,-5.38 0.07,-65.51 20.46,-125.67 56.38,-171.29 17.98,-22.77 40.01,-41.91 65.5,-55.48 25.44,-13.57 54.46,-21.37 84.71,-21.34 h 2075.55 c 30.64,-0.02 60.07,7.93 86.17,21.48 39.23,20.4 71.36,52.86 94.73,92.13 23.33,39.33 38.01,85.82 41.03,135.77 l 0.12,1.9 -19.99,1170.48 -49.91,-0.86 49.84,-2.9 c 0.34,5.8 0.52,11.62 0.52,17.45 -0.08,57.19 -16.77,109.9 -47.71,150.5 -15.48,20.24 -34.72,37.42 -57.29,49.61 -22.51,12.21 -48.44,19.19 -75.39,19.15 h -2201 v -49.93"
         style="fill:#000000;fill-opacity:1;fill-rule:nonzero;stroke:none"
         id="path18" /><path
         d="m 1773.19,2399.31 c 1.17,7.53 0,1916.77 0,1916.77 H 3972.94 V 2361.39 l -2199.75,37.92"
         style="fill:#ffffff;fill-opacity:1;fill-rule:nonzero;stroke:none"
         id="path20" /><path
         d="m 1773.19,2399.31 49.35,-7.58 c 0.25,1.61 0.31,2.39 0.37,3.03 0.11,1.21 0.13,1.71 0.16,2.18 0.07,1.56 0.07,2.03 0.09,2.93 0.05,3.06 0.09,8.34 0.13,16.52 0.25,56.72 0.34,245.27 0.34,483.21 0,567.96 -0.51,1416.51 -0.51,1416.52 l -49.93,-0.04 v -49.92 H 3923.01 V 2412.19 l -2148.96,37.04 -0.86,-49.92 49.35,-7.58 -49.35,7.58 -0.86,-49.92 2250.54,-38.8 V 4366.01 H 1723.23 l 0.03,-49.96 c 0,-0.03 0.01,-13.25 0.03,-37.56 0.09,-170.18 0.48,-881.97 0.48,-1378.89 0,-141.98 -0.03,-266.41 -0.11,-355.65 -0.04,-44.61 -0.09,-80.43 -0.15,-105.21 -0.04,-12.39 -0.07,-22.02 -0.11,-28.56 -0.02,-3.26 -0.04,-5.76 -0.06,-7.34 l -0.03,-1.5 33.08,-1 -33.05,1.69 -0.03,-0.69 33.08,-1 -33.05,1.69 45.6,-2.33 -45.52,3.5 -0.08,-1.17 45.6,-2.33 -45.52,3.5 48.87,-3.75 -48.45,7.43 c -0.34,-2.33 -0.36,-3.02 -0.42,-3.68 l 48.87,-3.75 -48.45,7.43 -8.68,-56.5 57.17,-0.99 0.86,49.92"
         style="fill:#000000;fill-opacity:1;fill-rule:nonzero;stroke:none"
         id="path22" /><path
         d="M 4213.33,3559.2 H 2834.15 l -23.91,165.13 c -18.81,39.61 -58.63,63.64 -105.44,63.64 h -607.88 c -60.13,0 -116.42,-48.75 -125.73,-108.88 l -78.44,-506.98 -85.39,-551.9 -64.22,-415.12 c -17.14,-110.87 58.82,-200.74 169.7,-200.74 h 2040.6 c 85.07,0 164.7,68.96 177.86,154.03 l 174.06,1291.94 c 9.31,60.14 -31.9,108.88 -92.03,108.88"
         style="fill:#ffffff;fill-opacity:1;fill-rule:nonzero;stroke:none"
         id="path24" /><path
         d="m 4213.33,3559.2 v 49.93 H 2877.37 l -18.8,129.81 -3.23,6.81 c -13.56,28.64 -35.22,52.18 -61.52,68 -26.3,15.88 -57.08,24.17 -89.02,24.15 h -607.88 c -21.8,0 -42.82,-4.42 -62.13,-12.08 -28.97,-11.55 -54.27,-30.25 -74,-53.96 -19.67,-23.71 -33.91,-52.76 -38.94,-85.13 l -78.44,-506.99 -85.39,-551.9 -64.22,-415.12 c -2.01,-12.98 -3,-25.87 -3,-38.56 -0.12,-60.52 22.98,-116.43 63.07,-156.31 39.94,-40.04 96.57,-63.57 158.97,-63.43 h 2040.6 c 28.03,0 55.19,5.68 80.25,15.63 37.61,14.97 70.68,39.4 96.39,70.32 25.66,30.91 44.08,68.66 50.56,110.38 l 0.08,0.5 174.12,1292.41 -49.48,6.66 49.34,-7.61 c 1.27,8.17 1.9,16.33 1.9,24.4 0.11,38.51 -14.79,74.99 -40.93,100.95 -25.99,26.11 -62.92,41.21 -102.34,41.07 v -49.93 -49.93 c 14.99,-0.13 24.73,-5 31.8,-11.89 6.93,-7.05 11.5,-16.61 11.61,-30.27 0,-2.87 -0.22,-5.93 -0.72,-9.17 l -0.07,-0.4 -174.13,-1292.49 49.48,-6.67 -49.34,7.63 c -2.28,-14.74 -7.51,-29.17 -15.27,-42.61 -11.61,-20.16 -29.05,-37.92 -49.11,-50.15 -20.09,-12.3 -42.43,-19 -64.14,-18.98 h -2040.6 c -37.96,0.14 -67.39,13.43 -88.42,34.25 -20.88,20.97 -33.66,49.97 -33.77,85.64 0,7.47 0.59,15.24 1.83,23.29 l 64.22,415.12 85.39,551.91 78.44,506.98 c 1.32,8.5 4.36,16.99 9.01,25.03 6.92,12.06 17.57,22.92 29.68,30.29 12.13,7.43 25.34,11.29 37.7,11.26 h 607.88 c 14.88,-0.02 27.4,-3.75 37.42,-9.78 10.01,-6.1 17.67,-14.39 22.93,-25.36 l 45.09,21.43 -49.41,-7.16 30.1,-207.9 h 1422.4 v 49.93"
         style="fill:#000000;fill-opacity:1;fill-rule:nonzero;stroke:none"
         id="path26" /><path
         d="m 3521.17,3258.83 c 40.04,0 77.52,32.45 83.72,72.5 6.19,40.04 -21.24,72.5 -61.29,72.5 -40.04,0 -77.52,-32.46 -83.71,-72.5 -6.2,-40.05 21.24,-72.5 61.28,-72.5"
         style="fill:#000000;fill-opacity:1;fill-rule:nonzero;stroke:none"
         id="path28" /><path 
         d="m 3445.75,2609.57 c 3.55,-1.8 7.24,-3.41 10.73,-5.28 8.97,-4.8 19.41,-10.68 29.02,-17.94 7.02,-5.31 14.99,-11.32 18.46,-18.96 6.48,-14.25 -9.11,-35.82 -24.42,-49.96 -16.77,-15.46 -35.89,-27.22 -56.08,-39.17 z m -35.69,-210.26 c 5.93,-8.68 9.03,-17.38 8.76,-26.58 -0.5,-16.34 -8.82,-34.56 -21.63,-49.27 z m -60.7,-26.58 c 2.56,9.2 8.36,17.9 16.97,26.59 l -10.6,-75.86 c -8.25,14.7 -10.94,32.93 -6.37,49.27 z m -24.91,194.66 c 5.82,7.62 15.64,13.65 24.3,18.96 11.88,7.26 24.14,13.14 34.58,17.94 4.08,1.87 8.26,3.48 12.37,5.28 l -18.35,-131.31 c -16.49,11.95 -31.97,23.71 -43.95,39.16 -10.94,14.15 -19.85,35.72 -8.95,49.97 z m 153.85,233.98 c 4.14,-1.7 8.37,-3.26 12.44,-5.06 19.59,-8.66 39.19,-18.8 49.99,-34.21 3.24,-4.61 6.15,-11.84 1.56,-20.19 -4.73,-8.67 -13.97,-16.15 -22.37,-22.33 -18.57,-13.66 -40.19,-23.85 -61.21,-33.67 z m -130.39,-39.27 c 15.58,15.41 38.32,25.55 60.59,34.21 4.62,1.8 9.33,3.36 13.99,5.05 l -16.12,-115.44 c -17.98,9.81 -36.45,20.02 -50.82,33.66 -6.49,6.18 -13.39,13.67 -15.44,22.33 -1.99,8.35 3.13,15.58 7.8,20.19 z M 4096,3359.24 c 0.53,3.47 1,6.95 1.31,10.4 h -141.23 1.89 l -165.02,22.69 c -32.3,0 -65.34,-20.3 -86.9,-47.59 -27.87,-35.35 -79.47,-81.64 -165.57,-97.63 l -0.12,-0.62 c -15.41,-3.17 -29.56,-3.19 -42.18,-0.03 l 0.09,0.65 c -81.16,15.99 -118.44,62.28 -135.37,97.63 -13.11,27.29 -39.87,47.59 -72.18,47.59 l -172.04,-22.69 h 1.9 -141.24 c -0.75,-3.45 -1.36,-6.93 -1.9,-10.4 -5.09,-33.19 17.9,-60.32 51.08,-60.32 h -51.53 l 0.12,-0.81 c 6.65,-44.89 48.77,-71.48 96.16,-61.97 l -68.84,-13.83 0.43,-0.71 c 24.79,-41.54 79.6,-54.31 129.72,-31.23 l 57.32,26.4 -131.3,-60.47 0.64,-0.55 c 37.21,-31.63 96.6,-28.16 140.66,7.77 l 29.45,24 -97.86,-79.8 0.68,-0.35 c 39.06,-20.12 92.22,-3.74 121.66,36.86 l 16.17,22.29 -64.66,-89.14 0.66,-0.2 c 35.7,-11.43 78.52,12 92.86,50.26 l 9.44,25.2 -34.64,-92.43 0.68,-0.13 c 34.83,-6.55 71.79,22.45 75.51,58.85 l -6.94,-67.87 0.55,-0.03 c 35.54,-2.74 68.04,32.19 61.85,66.39 l 8.49,-46.95 c 2.3,-12.75 13.27,-21.14 27.33,-20.31 5.23,0.31 10.23,2.02 14.76,4.59 l -24.59,-176.02 c -9.12,3.12 -18.21,6.31 -27.34,9.38 -30.37,10.15 -61.78,20.67 -91.69,32.81 -1.95,0.8 -4,1.56 -6.11,2.32 -6.42,2.38 -13.08,4.82 -16.72,8.71 -3.31,3.56 -0.3,9.42 2.55,12.48 2.68,2.89 7.84,6.61 22.04,4.55 6.44,-0.87 12.72,-2.22 19,-3.58 12.89,-2.77 26.8,-6.35 40.42,-6.43 14.3,-0.08 27.19,6.28 35.02,19.68 9.06,15.51 10.92,36.91 2.1,50.23 -4.9,7.4 -12.84,12.33 -21.63,14.95 -11.13,3.31 -23.02,2.52 -34.94,2.49 -23.03,-0.06 -51.67,-0.12 -78.06,-11.52 -25.54,-10.99 -46.68,-32.03 -55.15,-54.9 -8.54,-23.03 -2.57,-46.51 16.81,-66.11 15.96,-16.08 36.95,-25.46 51.35,-31.12 17.81,-7.01 36.49,-12.68 54.57,-18.16 l 4.32,-1.31 c 8.09,-2.46 16.22,-4.85 24.35,-7.25 -19.44,-9.24 -40.33,-20.84 -57.63,-37.59 -22.45,-21.73 -32.36,-49.42 -26.55,-74.1 6.09,-25.76 26.39,-42.92 41.13,-53.58 12.8,-9.24 26.46,-17.27 40.43,-24.65 -20,-9.53 -43.23,-21.19 -62.78,-37.85 -21.04,-17.9 -31.94,-39.79 -31.5,-63.31 0.74,-40.45 30.84,-67.14 63.25,-89.93 5.73,-4.03 11.55,-7.94 17.4,-11.83 1.84,-1.23 3.67,-2.52 5.52,-3.76 -1.62,-1.28 -3.3,-2.46 -4.9,-3.77 -23.27,-19.34 -37.26,-40.53 -41.63,-63 -4.76,-24.64 0.12,-49.87 13.43,-69.21 4.58,-6.66 10.3,-12.89 17.68,-19.24 -5.16,-4.61 -9.88,-10.03 -12.83,-16.85 -6.21,-14.25 -2.92,-28.1 1.54,-40.94 1.11,-3.22 2.66,-6.38 4.08,-9.56 l -2.07,-14.84 c -1.75,-12.66 5.01,-22.59 15.39,-22.59 10.45,0 20.28,9.93 22.41,22.59 l 2.52,14.83 c 2.4,3.19 4.95,6.36 7.06,9.57 8.41,12.84 15.98,26.69 14.19,40.94 -0.85,6.72 -3.82,12.1 -7.65,16.83 9.34,6.34 17.01,12.59 23.68,19.26 19.27,19.34 31.97,44.57 34.83,69.21 2.58,22.47 -4.85,43.66 -22.14,63 -1.19,1.31 -2.5,2.49 -3.73,3.77 2.22,1.23 4.45,2.52 6.64,3.74 7.05,3.89 14.12,7.8 21.11,11.85 39.46,22.79 77.82,49.48 91.06,89.93 7.73,23.52 3.6,45.41 -11.87,63.29 -14.41,16.68 -34.05,28.34 -51.11,37.87 16.26,7.38 32.41,15.41 48.07,24.65 18.05,10.66 43.64,27.82 57.71,53.6 13.44,24.66 12.1,52.35 -3.62,74.08 -12.12,16.75 -29.42,28.35 -46,37.59 8.87,2.4 17.74,4.79 26.59,7.25 l 4.73,1.31 c 19.78,5.48 40.21,11.15 60.19,18.16 16.15,5.66 40.05,15.04 60.97,31.14 25.45,19.6 38.69,43.07 37.27,66.09 -1.4,22.87 -16.02,43.91 -38.13,54.9 -22.9,11.4 -51.53,11.46 -74.52,11.52 -3.37,0 -6.83,0.1 -10.34,0.18 -25.87,0.71 -56.84,-7.59 -69.1,-35.67 -3.81,-8.73 -4.72,-18.7 -3.59,-27.35 0.87,-6.72 3.47,-13.1 8.25,-17.46 4.76,-4.36 11.41,-6.47 18.27,-7.07 11.03,-0.97 22.68,1.4 33.94,3.07 6.17,0.91 12.33,2.15 18.52,3.38 6.68,1.36 13.37,2.71 20.08,3.6 14.79,1.96 18.86,-1.68 20.63,-4.57 1.89,-3.06 3.11,-8.92 -1.31,-12.48 -4.84,-3.89 -12.25,-6.33 -19.41,-8.71 -2.34,-0.76 -4.63,-1.52 -6.82,-2.32 -33.68,-12.14 -68.33,-22.66 -101.85,-32.81 -10.09,-3.07 -20.17,-6.26 -30.24,-9.38 l 29.87,176.04 c 3.73,-2.58 8.21,-4.3 13.88,-4.64 13.29,-0.8 26.85,7.59 33.09,20.34 l 32.35,66 -9.33,-19.05 c -16.76,-34.2 4.92,-69.13 41.31,-66.39 l 0.56,0.03 18.9,91.22 -4.84,-23.35 c -7.53,-36.4 20.44,-65.4 57.3,-58.85 l 0.7,0.13 -4.38,67.22 c 2.51,-38.26 38.08,-61.68 77.31,-50.25 l 0.72,0.2 -27.8,66.84 c 16.9,-40.59 64.96,-56.97 110.26,-36.85 l 0.79,0.35 -51.16,55.79 c 32.95,-35.92 91.27,-39.39 138.27,-7.76 l 0.81,0.55 -112.6,60.47 49.15,-26.4 c 42.98,-23.08 101.75,-10.31 139.39,31.23 l 0.64,0.71 -64.55,13.83 c 44.44,-9.51 94.8,17.08 115.33,61.97 l 0.37,0.81 h -51.53 c 33.18,0 64.56,27.13 69.75,60.32"
         style="fill:#000000;fill-opacity:1;fill-rule:nonzero;stroke:none"
         id="path30" /><path
         d="m 2766.27,2666.45 h -689.65 l 106.7,689.64 h 689.65 l -106.7,-689.64"
         style="fill:#ffffff;fill-opacity:1;fill-rule:nonzero;stroke:none"
         id="path32" /><path
         d="m 2766.27,2666.45 v 49.92 h -631.4 l 91.25,589.8 h 588.6 l -97.79,-632.09 49.34,-7.63 v 49.92 -49.92 l 49.34,-7.64 115.6,747.21 h -790.69 l -122.15,-789.5 h 790.7 l 6.54,42.29 -49.34,7.64"
         style="fill:#000000;fill-opacity:1;fill-rule:nonzero;stroke:none"
         id="path34" /><path
         d="m 2580.33,3122.1 c -7.11,-45.97 -50.13,-83.22 -96.09,-83.22 -45.96,0 -77.45,37.25 -70.34,83.22 7.11,45.96 50.13,83.21 96.09,83.21 45.96,0 77.45,-37.25 70.34,-83.21"
         style="fill:#ffffff;fill-opacity:1;fill-rule:nonzero;stroke:none"
         id="path36" /><path
         d="m 2580.33,3122.1 -29.18,4.51 c -2.3,-15.2 -11.03,-30.16 -23.63,-41.04 -12.57,-10.92 -28.38,-17.22 -43.28,-17.16 -13.57,0.08 -23.37,4.68 -30.41,11.61 -6.96,7.03 -11.34,16.67 -11.41,29.25 0,2.67 0.2,5.42 0.65,8.25 l 0.01,0.07 c 2.29,15.2 11.02,30.15 23.62,41.03 12.58,10.92 28.39,17.22 43.29,17.16 13.57,-0.08 23.36,-4.68 30.41,-11.61 6.95,-7.02 11.33,-16.66 11.4,-29.24 0,-2.64 -0.21,-5.42 -0.65,-8.34 l 29.18,-4.49 29.19,-4.49 c 0.89,5.81 1.34,11.6 1.34,17.32 0.07,27.28 -10.42,52.84 -28.74,71.04 -18.23,18.3 -44.1,28.95 -72.13,28.87 -31.05,-0.06 -59.74,-12.38 -81.95,-31.58 -22.18,-19.24 -38.51,-45.89 -43.33,-76.64 l 0.01,0.06 c -0.92,-5.88 -1.36,-11.7 -1.36,-17.41 -0.07,-27.28 10.42,-52.84 28.74,-71.04 18.23,-18.3 44.11,-28.96 72.14,-28.88 31.05,0.06 59.73,12.38 81.94,31.58 22.18,19.24 38.52,45.9 43.33,76.66 l -29.18,4.51"
         style="fill:#000000;fill-opacity:1;fill-rule:nonzero;stroke:none"
         id="path38" /><path
         d="m 2640.96,2810.57 c 0,0 -64.91,-29.01 -196.53,-29.01 -141.43,0 -187.55,29.01 -187.55,29.01 16.4,106.05 115.69,192.04 221.74,192.04 h 0.01 c 106.06,0 178.73,-85.99 162.33,-192.04"
         style="fill:#ffffff;fill-opacity:1;fill-rule:nonzero;stroke:none"
         id="path40" /><path
         d="m 2640.96,2810.57 -12.05,26.96 4.85,-10.86 -4.72,10.92 -0.13,-0.06 4.85,-10.86 -4.72,10.92 c -0.62,-0.25 -61.32,-26.48 -184.61,-26.5 -68.7,0 -113.2,7.05 -139.7,13.63 -13.26,3.3 -22.02,6.46 -27.09,8.58 -2.54,1.06 -4.17,1.85 -4.97,2.26 l -0.61,0.33 -7.24,-12.69 7.77,12.37 -0.53,0.32 -7.24,-12.69 7.77,12.37 -15.71,-25 29.18,-4.52 c 6.94,45.25 32.06,87.42 67.4,117.99 35.31,30.61 80.21,49.1 125.16,49.04 h 0.01 c 40.77,-0.08 73.88,-14.66 97.45,-38.09 23.48,-23.52 37.59,-56.17 37.65,-94.83 0,-8.1 -0.63,-16.47 -1.96,-25.1 l 29.19,-4.49 -12.05,26.96 12.05,-26.96 29.18,-4.5 c 1.77,11.52 2.65,22.9 2.65,34.09 0.07,53.36 -20.14,101.92 -54.98,136.63 -34.76,34.79 -83.96,55.43 -139.18,55.35 h -0.01 c -61.1,-0.06 -118.87,-24.57 -163.82,-63.46 -44.92,-38.94 -77.64,-92.79 -87.11,-153.6 l -2.97,-19.18 16.43,-10.33 c 5.88,-3.69 57.92,-33.56 203.28,-33.54 135.98,-0.02 205.2,30.05 208.57,31.58 l 14.69,6.56 2.45,15.9 -29.18,4.5"
         style="fill:#000000;fill-opacity:1;fill-rule:nonzero;stroke:none"
         id="path42" /><path
         d="M 2029.61,4060.39 H 3696.38"
         style="fill:#ffffff;fill-opacity:1;fill-rule:nonzero;stroke:none"
         id="path44" /><path
         d="m 2029.61,4010.46 h 1666.77 v 99.8594 H 2029.61 Z"
         style="fill:#000000;fill-opacity:1;fill-rule:nonzero;stroke:none"
         id="path46" /><path
         d="m 2976.74,3815.54 h 696.88"
         style="fill:#ffffff;fill-opacity:1;fill-rule:nonzero;stroke:none"
         id="path48" /><path
         d="m 2976.74,3765.61 h 696.879 v 99.8594 H 2976.74 Z"
         style="fill:#000000;fill-opacity:1;fill-rule:nonzero;stroke:none"
         id="path50" />
		 </g></g></svg>
