<?xml version="1.0" ?><!DOCTYPE svg  PUBLIC '-//W3C//DTD SVG 1.1//EN'  'http://www.w3.org/Graphics/SVG/1.1/DTD/svg11.dtd'><svg height="40px" id="vec_x5F_personnel_2_x5C_2" style="enable-background:new 0 0 40 40;" version="1.1" viewBox="0 0 40 40" width="40px" xml:space="preserve" xmlns="http://www.w3.org/2000/svg" xmlns:xlink="http://www.w3.org/1999/xlink"><path d="  M23.571,19.475c5.976,1.358,10.503,6.006,11.982,11.678c0.336,1.295,0.081,2.552-0.738,3.609c-0.817,1.059-1.967,1.623-3.306,1.623  H8.488c-1.337,0-2.488-0.564-3.306-1.623c-0.817-1.058-1.075-2.314-0.736-3.609c1.478-5.672,6.005-10.319,11.981-11.678  c-2.797-1.336-4.731-4.189-4.731-7.496c0-4.585,3.718-8.304,8.303-8.304c4.585,0,8.303,3.719,8.303,8.304  C28.302,15.285,26.369,18.139,23.571,19.475z" style="fill-rule:evenodd;clip-rule:evenodd;fill:none;stroke:#000000;stroke-width:2.2;stroke-linecap:round;stroke-linejoin:round;stroke-miterlimit:22.9256;"/></svg>