<?xml version="1.0" ?><!DOCTYPE svg  PUBLIC '-//W3C//DTD SVG 1.1//EN'  'http://www.w3.org/Graphics/SVG/1.1/DTD/svg11.dtd'><svg enable-background="new 0 0 60 60" height="60px" id="图层_1" version="1.1" viewBox="0 0 60 60" width="60px" xml:space="preserve" xmlns="http://www.w3.org/2000/svg" xmlns:xlink="http://www.w3.org/1999/xlink"><g><path clip-rule="evenodd" d="   M9.87,51.777C4.588,51.586,1,50.57,1,46.006c0-5.294,4.826-10.733,11.52-12.709c-2.581-1.73-4.28-4.674-4.28-8.015   c0-5.327,4.317-9.645,9.642-9.645c3.263,0,6.146,1.62,7.892,4.1" fill="none" fill-rule="evenodd" stroke="#3E3E3E" stroke-miterlimit="10" stroke-width="2"/><path clip-rule="evenodd" d="   M50.129,51.777C55.412,51.586,59,50.57,59,46.006c0-5.294-4.826-10.733-11.52-12.709c2.581-1.73,4.28-4.674,4.28-8.015   c0-5.327-4.317-9.645-9.642-9.645c-3.263,0-6.146,1.62-7.892,4.1" fill="none" fill-rule="evenodd" stroke="#3E3E3E" stroke-miterlimit="10" stroke-width="2"/><g><path d="M29.799,23.398c4.57,0,8.288,3.719,8.288,8.29c0,2.769-1.376,5.344-3.682,6.89l-3.539,2.373l4.087,1.206    c6.189,1.827,10.857,6.832,10.857,11.643c0,2.904-1.475,4.2-10.212,4.2c-0.879,0-1.788-0.01-2.722-0.019    c-1-0.01-2.028-0.02-3.076-0.02c-1.049,0-2.076,0.01-3.076,0.02C25.791,57.99,24.881,58,24.002,58    c-8.738,0-10.212-1.296-10.212-4.2c0-4.81,4.667-9.814,10.856-11.642l4.087-1.206l-3.54-2.373    c-2.306-1.546-3.683-4.122-3.683-6.891C21.511,27.117,25.229,23.398,29.799,23.398 M29.799,21.398    c-5.682,0-10.288,4.606-10.288,10.29c0,3.564,1.814,6.705,4.569,8.552c-7.142,2.108-12.29,7.912-12.29,13.56    c0,5.626,5.11,6.2,12.212,6.2c1.82,0,3.77-0.038,5.798-0.038c2.028,0,3.979,0.038,5.798,0.038c7.103,0,12.212-0.574,12.212-6.2    c0-5.647-5.149-11.453-12.291-13.561c2.754-1.847,4.567-4.986,4.567-8.551C40.087,26.005,35.481,21.398,29.799,21.398    L29.799,21.398z" fill="#3E3E3E"/></g></g></svg>